<svg xmlns="http://www.w3.org/2000/svg" width="75" viewBox="0 0 75 75" height="75" version="1.0"><defs><clipPath id="a"><path d="M 21 16.65625 L 54 16.65625 L 54 29 L 21 29 Z M 21 16.65625"/></clipPath><clipPath id="b"><path d="M 30 27 L 45 27 L 45 48.15625 L 30 48.15625 Z M 30 27"/></clipPath><clipPath id="c"><path d="M 16.355469 23 L 58.355469 23 L 58.355469 47 L 16.355469 47 Z M 16.355469 23"/></clipPath></defs><g clip-path="url(#a)"><path fill="#39B54A" d="M 23.167969 28.667969 C 23.421875 27.929688 23.730469 27.222656 24.09375 26.535156 C 24.457031 25.847656 24.871094 25.191406 25.339844 24.570312 C 25.804688 23.949219 26.3125 23.367188 26.867188 22.824219 C 27.425781 22.28125 28.019531 21.78125 28.648438 21.332031 C 29.28125 20.878906 29.945312 20.480469 30.640625 20.132812 C 31.332031 19.785156 32.050781 19.492188 32.789062 19.257812 C 33.527344 19.019531 34.28125 18.839844 35.046875 18.722656 C 35.816406 18.601562 36.585938 18.542969 37.363281 18.542969 C 38.140625 18.542969 38.910156 18.601562 39.679688 18.722656 C 40.445312 18.839844 41.199219 19.019531 41.9375 19.257812 C 42.675781 19.492188 43.394531 19.785156 44.085938 20.132812 C 44.78125 20.480469 45.445312 20.878906 46.078125 21.332031 C 46.710938 21.78125 47.304688 22.28125 47.859375 22.824219 C 48.414062 23.367188 48.921875 23.949219 49.390625 24.570312 C 49.855469 25.191406 50.269531 25.847656 50.632812 26.535156 C 50.996094 27.222656 51.304688 27.929688 51.558594 28.667969 L 53.335938 28.164062 C 53.054688 27.335938 52.710938 26.53125 52.304688 25.753906 C 51.898438 24.976562 51.433594 24.234375 50.914062 23.53125 C 50.390625 22.828125 49.816406 22.167969 49.195312 21.550781 C 48.570312 20.9375 47.902344 20.375 47.191406 19.863281 C 46.476562 19.351562 45.730469 18.898438 44.949219 18.503906 C 44.164062 18.109375 43.359375 17.777344 42.523438 17.507812 C 41.691406 17.242188 40.839844 17.039062 39.976562 16.902344 C 39.109375 16.765625 38.238281 16.699219 37.363281 16.699219 C 36.488281 16.699219 35.617188 16.765625 34.75 16.902344 C 33.886719 17.039062 33.035156 17.242188 32.203125 17.507812 C 31.367188 17.777344 30.5625 18.109375 29.777344 18.503906 C 28.996094 18.898438 28.25 19.351562 27.535156 19.863281 C 26.824219 20.375 26.15625 20.9375 25.53125 21.550781 C 24.910156 22.167969 24.335938 22.828125 23.8125 23.53125 C 23.292969 24.234375 22.828125 24.976562 22.421875 25.753906 C 22.015625 26.53125 21.671875 27.335938 21.390625 28.164062 Z M 23.167969 28.667969"/></g><g clip-path="url(#b)"><path fill="#39B54A" d="M 35.894531 39.023438 L 31.285156 40.195312 L 37.871094 27.710938 L 43.820312 27.710938 L 35.734375 37.8125 L 44.058594 35.730469 L 30.503906 48.109375 Z M 35.894531 39.023438"/></g><g clip-path="url(#c)"><path fill="#34353A" d="M 58.210938 29.980469 L 58.117188 29.457031 C 58.070312 29.207031 57.949219 29.003906 57.75 28.847656 C 57.550781 28.691406 57.328125 28.617188 57.074219 28.628906 C 56.023438 28.671875 54.902344 28.75 54.300781 28.84375 C 53.023438 29.039062 51.355469 30.839844 51.355469 30.839844 C 51.355469 30.839844 49.171875 27.785156 48.105469 26.289062 C 47.042969 24.792969 45.828125 23.523438 43.851562 23.523438 L 30.878906 23.523438 C 28.902344 23.523438 27.691406 24.8125 26.625 26.300781 C 25.558594 27.792969 23.375 30.851562 23.375 30.851562 C 23.375 30.851562 21.699219 29.039062 20.429688 28.84375 C 19.828125 28.75 18.707031 28.671875 17.652344 28.628906 C 17.402344 28.617188 17.175781 28.691406 16.980469 28.847656 C 16.78125 29.003906 16.660156 29.207031 16.613281 29.457031 L 16.515625 29.980469 C 16.363281 30.816406 16.863281 31.132812 17.71875 31.371094 C 18.433594 31.566406 19.535156 31.847656 19.941406 31.804688 C 20.597656 31.738281 21.570312 31.300781 21.734375 31.246094 L 21.75 31.257812 C 21.851562 31.367188 21.921875 31.496094 21.960938 31.640625 C 22 31.785156 22.003906 31.929688 21.972656 32.078125 C 21.941406 32.222656 21.878906 32.355469 21.785156 32.46875 C 21.6875 32.585938 21.570312 32.671875 21.433594 32.730469 C 20.792969 33.011719 19.9375 33.429688 19.722656 33.730469 C 19.277344 34.175781 18.722656 40.664062 18.546875 42.855469 C 18.507812 43.332031 18.683594 43.710938 19.066406 43.996094 L 20.261719 44.871094 L 20.261719 45.933594 C 20.257812 46.03125 20.292969 46.117188 20.363281 46.183594 C 20.433594 46.253906 20.515625 46.289062 20.613281 46.289062 L 26.800781 46.34375 C 26.898438 46.34375 26.984375 46.308594 27.050781 46.238281 C 27.121094 46.171875 27.160156 46.085938 27.160156 45.988281 L 27.160156 45.460938 L 28.472656 45 C 29.167969 44.753906 29.886719 44.648438 30.621094 44.675781 L 31.5 44.707031 L 34.046875 40.414062 L 29.582031 41.542969 L 34.339844 32.523438 L 25.121094 30.78125 C 25.015625 30.753906 24.949219 30.683594 24.914062 30.582031 C 24.878906 30.480469 24.894531 30.382812 24.960938 30.296875 C 25.554688 29.496094 27.046875 27.488281 28.414062 25.832031 C 28.722656 25.453125 29.125 25.265625 29.617188 25.261719 L 45.113281 25.261719 C 45.605469 25.261719 46.007812 25.453125 46.320312 25.835938 C 47.6875 27.496094 49.179688 29.496094 49.773438 30.300781 C 49.839844 30.386719 49.855469 30.480469 49.820312 30.585938 C 49.785156 30.6875 49.714844 30.753906 49.613281 30.785156 L 41.226562 32.367188 L 38.0625 36.320312 L 47.082031 34.207031 L 35.417969 44.847656 L 37.363281 44.917969 L 44.109375 44.667969 C 44.84375 44.640625 45.5625 44.75 46.257812 44.992188 L 47.570312 45.453125 L 47.570312 45.980469 C 47.574219 46.082031 47.609375 46.164062 47.679688 46.234375 C 47.75 46.304688 47.832031 46.339844 47.929688 46.335938 L 54.117188 46.285156 C 54.214844 46.285156 54.300781 46.25 54.367188 46.179688 C 54.4375 46.109375 54.472656 46.027344 54.46875 45.929688 L 54.46875 44.863281 L 55.664062 43.988281 C 56.046875 43.707031 56.222656 43.328125 56.183594 42.851562 C 56.007812 40.660156 55.453125 34.167969 55.007812 33.722656 C 54.792969 33.421875 53.9375 33.007812 53.296875 32.726562 C 53.160156 32.667969 53.042969 32.578125 52.949219 32.464844 C 52.851562 32.347656 52.789062 32.21875 52.757812 32.070312 C 52.726562 31.925781 52.730469 31.78125 52.769531 31.636719 C 52.808594 31.492188 52.882812 31.363281 52.984375 31.253906 C 52.988281 31.25 52.992188 31.246094 52.996094 31.238281 C 53.160156 31.296875 54.132812 31.734375 54.789062 31.800781 C 55.1875 31.84375 56.296875 31.5625 57.011719 31.367188 C 57.867188 31.132812 58.367188 30.816406 58.210938 29.980469 Z M 28.164062 36.265625 C 28.21875 36.28125 28.246094 36.316406 28.253906 36.371094 C 28.261719 36.425781 28.242188 36.464844 28.195312 36.492188 L 25.871094 37.820312 C 25.734375 37.898438 25.589844 37.933594 25.433594 37.925781 L 22.765625 37.804688 C 22.460938 37.789062 22.195312 37.675781 21.976562 37.457031 C 21.757812 37.238281 21.640625 36.976562 21.625 36.667969 L 21.515625 34.664062 C 21.511719 34.621094 21.527344 34.585938 21.5625 34.558594 C 21.59375 34.535156 21.628906 34.527344 21.667969 34.535156 Z M 53.054688 34.527344 C 53.09375 34.515625 53.132812 34.523438 53.164062 34.550781 C 53.195312 34.578125 53.210938 34.609375 53.210938 34.652344 L 53.101562 36.660156 C 53.085938 36.96875 52.964844 37.230469 52.746094 37.449219 C 52.527344 37.664062 52.265625 37.78125 51.957031 37.796875 L 49.296875 37.921875 C 49.140625 37.925781 48.992188 37.890625 48.859375 37.8125 L 46.535156 36.5 C 46.488281 36.472656 46.46875 36.433594 46.472656 36.378906 C 46.480469 36.324219 46.511719 36.289062 46.566406 36.273438 Z M 53.054688 34.527344"/></g></svg>